<svg xmlns="http://www.w3.org/2000/svg" version="1.1" xmlns:xlink="http://www.w3.org/1999/xlink" xmlns:svgjs="http://svgjs.com/svgjs" width="1920" height="1080" preserveAspectRatio="none" viewBox="0 0 1920 1080">
    <g mask="url(&quot;#SvgjsMask1056&quot;)" fill="none">
        <rect width="1920" height="1080" x="0" y="0" fill="rgba(21, 32, 43, 1)"></rect>
        <path d="M29 1080L1109 0L1992.5 0L912.5 1080z" fill="url(#SvgjsLinearGradient1057)"></path>
        <path d="M689.6 1080L1769.6 0L2000.6 0L920.6 1080z" fill="url(#SvgjsLinearGradient1057)"></path>
        <path d="M1823 1080L743 0L225.5 0L1305.5 1080z" fill="url(#SvgjsLinearGradient1058)"></path>
        <path d="M1179.4 1080L99.40000000000009 0L-172.0999999999999 0L907.9000000000001 1080z" fill="url(#SvgjsLinearGradient1058)"></path>
        <path d="M1224.7577333187319 1080L1920 384.75773331873177L1920 1080z" fill="url(#SvgjsLinearGradient1057)"></path>
        <path d="M0 1080L695.2422666812682 1080L 0 384.75773331873177z" fill="url(#SvgjsLinearGradient1058)"></path>
    </g>
    <defs>
        <mask id="SvgjsMask1056">
            <rect width="1920" height="1080" fill="#ffffff"></rect>
        </mask>
        <linearGradient x1="0%" y1="100%" x2="100%" y2="0%" id="SvgjsLinearGradient1057">
            <stop stop-color="rgba(224, 36, 94, 0.26)" offset="0"></stop>
            <stop stop-opacity="0" stop-color="rgba(224, 36, 94, 0.26)" offset="0.66"></stop>
        </linearGradient>
        <linearGradient x1="100%" y1="100%" x2="0%" y2="0%" id="SvgjsLinearGradient1058">
            <stop stop-color="rgba(224, 36, 94, 0.26)" offset="0"></stop>
            <stop stop-opacity="0" stop-color="rgba(224, 36, 94, 0.26)" offset="0.66"></stop>
        </linearGradient>
    </defs>
</svg>